<svg width="1200" height="800" viewBox="0 0 1200 800" fill="none" xmlns="http://www.w3.org/2000/svg">
  <defs>
    <linearGradient id="bg" x1="0" y1="0" x2="1200" y2="800" gradientUnits="userSpaceOnUse">
      <stop stop-color="#FFF7FB"/>
      <stop offset="0.38" stop-color="#FBE8FF"/>
      <stop offset="0.7" stop-color="#E7FFFA"/>
      <stop offset="1" stop-color="#FFF9E8"/>
    </linearGradient>
    <linearGradient id="blob" x1="276" y1="170" x2="865" y2="615" gradientUnits="userSpaceOnUse">
      <stop stop-color="#FFDDF0"/>
      <stop offset="1" stop-color="#B9F3E4"/>
    </linearGradient>
    <linearGradient id="ear" x1="0" y1="0" x2="1" y2="1">
      <stop stop-color="#FF9EC7"/>
      <stop offset="1" stop-color="#FF5FA2"/>
    </linearGradient>
  </defs>

  <rect width="1200" height="800" fill="url(#bg)"/>

  <circle cx="195" cy="152" r="58" fill="#FFE9A8" fill-opacity="0.9"/>
  <circle cx="1016" cy="154" r="42" fill="#B7A2FF" fill-opacity="0.52"/>
  <circle cx="930" cy="218" r="18" fill="#9BDCFF" fill-opacity="0.9"/>
  <circle cx="260" cy="267" r="14" fill="#FF9EC7" fill-opacity="0.8"/>
  <circle cx="1060" cy="416" r="16" fill="#4ED6A6" fill-opacity="0.75"/>

  <g opacity="0.32">
    <path d="M71 600C111 562 160 548 205 564C255 582 305 626 347 613C382 601 405 558 450 547C500 534 548 558 588 582C660 625 721 633 791 597C858 562 919 496 1024 513C1094 524 1125 571 1138 603V800H71V600Z" fill="#BDF5E0"/>
    <path d="M9 701C89 669 148 667 212 686C279 706 317 742 377 744C446 747 485 695 551 685C621 674 679 697 742 713C829 734 896 718 962 680C1029 642 1082 644 1165 676V800H9V701Z" fill="#CFF7E8"/>
  </g>


  <g transform="translate(0 10)">
    <path d="M1015 136L1023 161L1049 166L1028 184L1036 211L1015 196L992 211L1001 184L980 166L1005 161L1015 136Z" fill="#FFE9A8"/>
    <path d="M164 676L174 706L205 712L178 732L186 763L164 745L136 763L143 732L117 712L147 706L164 676Z" fill="#B79CFF" fill-opacity="0.75"/>
    <path d="M886 658L893 678L914 683L896 697L901 720L886 707L867 720L872 697L854 683L876 678L886 658Z" fill="#9BDCFF" fill-opacity="0.8"/>
    <circle cx="209" cy="160" r="8" fill="#FF9EC7"/>
    <circle cx="895" cy="238" r="7" fill="#4ED6A6"/>
  </g>
</svg>
